<?xml version="1.0" encoding="utf-8"?>
<!-- Generator: Adobe Illustrator 24.0.1, SVG Export Plug-In . SVG Version: 6.00 Build 0)  -->
<svg version="1.1" id="Camada_1" xmlns="http://www.w3.org/2000/svg" xmlns:xlink="http://www.w3.org/1999/xlink" x="0px" y="0px"
	 viewBox="0 0 64 72" style="enable-background:new 0 0 64 72;" xml:space="preserve">
<style type="text/css">
	.st0{fill:#FFFFFF;}
	.st1{font-family:'MyriadPro-Regular';}
	.st2{font-size:17.3308px;}
</style>
<path d="M64,18.3v25.4C64,53.8,55.6,62,45.1,62h-1.9l-9.7,9.4C33.1,71.8,32.6,72,32,72c-0.5,0-1-0.2-1.4-0.5l-0.2-0.2l0,0L20.8,62
	h-1.9C8.4,62,0,53.8,0,43.7V18.3C0,8.2,8.4,0,18.9,0h26.3C55.6,0,64,8.2,64,18.3z"/>
<rect x="11.6" y="15.3" class="st0" width="40.8" height="27.6"/>
<text transform="matrix(1.1608 0 0 1 27.8804 33.9058)" class="st1 st2">$</text>
</svg>
